<svg width="32" height="32" viewBox="0 0 34 34" fill="none" xmlns="http://www.w3.org/2000/svg">
    <path d="M11 25.3333L17 19.3333L23 25.3333L25.3333 23L19.3333 17L25.3333 11L23 8.66665L17 14.6666L11 8.66665L8.66665 11L14.6666 17L8.66665 23L11 25.3333ZM17 33.6666C14.6944 33.6666 12.5278 33.2291 10.5 32.3541C8.4722 31.4791 6.70831 30.2916 5.20831 28.7916C3.70831 27.2916 2.52081 25.5278 1.64581 23.5C0.770813 21.4722 0.333313 19.3055 0.333313 17C0.333313 14.6944 0.770813 12.5278 1.64581 10.5C2.52081 8.4722 3.70831 6.70831 5.20831 5.20831C6.70831 3.70831 8.4722 2.52081 10.5 1.64581C12.5278 0.770813 14.6944 0.333313 17 0.333313C19.3055 0.333313 21.4722 0.770813 23.5 1.64581C25.5278 2.52081 27.2916 3.70831 28.7916 5.20831C30.2916 6.70831 31.4791 8.4722 32.3541 10.5C33.2291 12.5278 33.6666 14.6944 33.6666 17C33.6666 19.3055 33.2291 21.4722 32.3541 23.5C31.4791 25.5278 30.2916 27.2916 28.7916 28.7916C27.2916 30.2916 25.5278 31.4791 23.5 32.3541C21.4722 33.2291 19.3055 33.6666 17 33.6666ZM17 30.3333C20.7222 30.3333 23.875 29.0416 26.4583 26.4583C29.0416 23.875 30.3333 20.7222 30.3333 17C30.3333 13.2778 29.0416 10.125 26.4583 7.54165C23.875 4.95831 20.7222 3.66665 17 3.66665C13.2778 3.66665 10.125 4.95831 7.54165 7.54165C4.95831 10.125 3.66665 13.2778 3.66665 17C3.66665 20.7222 4.95831 23.875 7.54165 26.4583C10.125 29.0416 13.2778 30.3333 17 30.3333Z" fill="#5F6C6D"/>
</svg>
