<svg class="flex ml-28 absolute" width="32" height="32" viewBox="0 0 32 32" fill="none" xmlns="http://www.w3.org/2000/svg">
  <rect width="32" height="32" fill="#F8F9FA"/>
  <path d="M0 32L2.97143 21.7905C2.48889 20.7492 2.12698 19.6825 1.88571 18.5905C1.64444 17.4984 1.52381 16.381 1.52381 15.2381C1.52381 13.1302 1.92381 11.1492 2.72381 9.29524C3.52381 7.44127 4.60952 5.82857 5.98095 4.45714C7.35238 3.08571 8.96508 2 10.819 1.2C12.673 0.4 14.654 0 16.7619 0C18.8698 0 20.8508 0.4 22.7048 1.2C24.5587 2 26.1714 3.08571 27.5429 4.45714C28.9143 5.82857 30 7.44127 30.8 9.29524C31.6 11.1492 32 13.1302 32 15.2381C32 17.346 31.6 19.327 30.8 21.181C30 23.0349 28.9143 24.6476 27.5429 26.019C26.1714 27.3905 24.5587 28.4762 22.7048 29.2762C20.8508 30.0762 18.8698 30.4762 16.7619 30.4762C15.619 30.4762 14.5016 30.3556 13.4095 30.1143C12.3175 29.873 11.2508 29.5111 10.2095 29.0286L0 32ZM4.49524 27.5048L9.37143 26.0571C9.72698 25.9556 10.0889 25.9175 10.4571 25.9429C10.8254 25.9683 11.1746 26.0571 11.5048 26.2095C12.3175 26.6159 13.1683 26.9206 14.0571 27.1238C14.946 27.327 15.8476 27.4286 16.7619 27.4286C20.1651 27.4286 23.0476 26.2476 25.4095 23.8857C27.7714 21.5238 28.9524 18.6413 28.9524 15.2381C28.9524 11.8349 27.7714 8.95238 25.4095 6.59048C23.0476 4.22857 20.1651 3.04762 16.7619 3.04762C13.3587 3.04762 10.4762 4.22857 8.11429 6.59048C5.75238 8.95238 4.57143 11.8349 4.57143 15.2381C4.57143 16.1524 4.67302 17.054 4.87619 17.9429C5.07937 18.8317 5.38413 19.6825 5.79048 20.4952C5.96825 20.8254 6.06349 21.1746 6.07619 21.5429C6.08889 21.9111 6.04444 22.273 5.94286 22.6286L4.49524 27.5048ZM15.2381 21.3333H18.2857V16.7619H22.8571V13.7143H18.2857V9.14286H15.2381V13.7143H10.6667V16.7619H15.2381V21.3333Z" fill="#0087E8"/>
</svg>
