<svg width="108" height="108" viewBox="0 0 108 108" fill="none" xmlns="http://www.w3.org/2000/svg">
<g id="groups_56dp_E8EAED_FILL0_wght400_GRAD0_opsz48 1" clip-path="url(#clip0_413_1965)">
<path id="Vector" d="M0.692383 80.6539V74.7678C0.692383 71.9122 2.22868 69.5881 5.30128 67.7956C8.37387 66.0024 12.4045 65.1058 17.3932 65.1058C18.2935 65.1058 19.1594 65.1243 19.9909 65.1613C20.8223 65.1984 21.6453 65.2779 22.4597 65.4001C21.8674 66.6847 21.4232 67.9866 21.127 69.306C20.8308 70.6246 20.6828 72.001 20.6828 73.4351V80.6539H0.692383ZM27.3462 80.6539V73.4351C27.3462 71.0659 27.9941 68.9003 29.2897 66.9383C30.5854 64.9762 32.4179 63.2548 34.7871 61.7741C37.1563 60.2933 39.9883 59.1827 43.283 58.4423C46.5777 57.702 50.1501 57.3318 54.0001 57.3318C57.9241 57.3318 61.5335 57.702 64.8282 58.4423C68.1229 59.1827 70.9549 60.2933 73.3241 61.7741C75.6933 63.2548 77.5073 64.9762 78.7659 66.9383C80.0246 68.9003 80.6539 71.0659 80.6539 73.4351V80.6539H27.3462ZM87.3174 80.6539V73.4351C87.3174 71.9647 87.1878 70.5791 86.9287 69.2782C86.6695 67.9774 86.2438 66.6876 85.6515 65.409C86.4659 65.2809 87.2867 65.1984 88.1137 65.1613C88.9407 65.1243 89.7858 65.1058 90.6491 65.1058C95.6467 65.1058 99.6725 65.9858 102.727 67.7456C105.781 69.5055 107.308 71.8463 107.308 74.7678V80.6539H87.3174ZM34.0097 73.9904H73.9905V73.3241C73.9905 70.5847 72.121 68.345 68.382 66.6051C64.6431 64.8652 59.8491 63.9952 54.0001 63.9952C48.151 63.9952 43.357 64.8652 39.6181 66.6051C35.8792 68.345 34.0097 70.6217 34.0097 73.4351V73.9904ZM17.3033 61.7741C15.188 61.7741 13.3715 61.013 11.8537 59.4907C10.3359 57.9678 9.577 56.1375 9.577 54C9.577 51.8529 10.3381 50.0205 11.8603 48.5027C13.3833 46.9849 15.2135 46.226 17.351 46.226C19.4982 46.226 21.3306 46.9849 22.8484 48.5027C24.3662 50.0205 25.1251 51.8688 25.1251 54.0478C25.1251 56.1631 24.3662 57.9796 22.8484 59.4974C21.3306 61.0152 19.4822 61.7741 17.3033 61.7741ZM90.6014 61.7741C88.4861 61.7741 86.6695 61.013 85.1518 59.4907C83.634 57.9678 82.8751 56.1375 82.8751 54C82.8751 51.8529 83.6362 50.0205 85.1584 48.5027C86.6814 46.9849 88.5116 46.226 90.6491 46.226C92.7962 46.226 94.6287 46.9849 96.1465 48.5027C97.6643 50.0205 98.4231 51.8688 98.4231 54.0478C98.4231 56.1631 97.6643 57.9796 96.1465 59.4974C94.6287 61.0152 92.7803 61.7741 90.6014 61.7741ZM54.0001 54C50.2982 54 47.1515 52.7044 44.5602 50.113C41.9688 47.5217 40.6732 44.375 40.6732 40.6731C40.6732 36.8972 41.9688 33.732 44.5602 31.1777C47.1515 28.6234 50.2982 27.3462 54.0001 27.3462C57.776 27.3462 60.9412 28.6234 63.4955 31.1777C66.0498 33.732 67.327 36.8972 67.327 40.6731C67.327 44.375 66.0498 47.5217 63.4955 50.113C60.9412 52.7044 57.776 54 54.0001 54ZM54.0389 47.3366C55.938 47.3366 57.5169 46.6943 58.7756 45.4097C60.0342 44.1252 60.6635 42.5333 60.6635 40.6342C60.6635 38.7352 60.0287 37.1563 58.7589 35.8976C57.4891 34.639 55.9158 34.0097 54.0389 34.0097C52.1621 34.0097 50.5758 34.6445 49.2801 35.9143C47.9845 37.1841 47.3366 38.7574 47.3366 40.6342C47.3366 42.5111 47.9789 44.0974 49.2635 45.3931C50.548 46.6887 52.1399 47.3366 54.0389 47.3366Z" fill="#FDFDFD"/>
</g>
<defs>
<clipPath id="clip0_413_1965">
<rect width="106.615" height="106.615" fill="white" transform="translate(0.692383 0.692322)"/>
</clipPath>
</defs>
</svg>
