<svg width="48" height="48" viewBox="0 0 48 48" fill="none" xmlns="http://www.w3.org/2000/svg">
    <rect width="48" height="48" rx="24" fill="#0087E8"/>
    <path d="M27.1647 24.2908C27.9191 23.4229 28.321 22.3428 28.3018 21.2345C28.2826 20.1262 27.8435 19.0582 27.0594 18.2126C26.2753 17.367 25.1946 16.796 24.0015 16.597C22.8084 16.398 21.5767 16.5832 20.5163 17.1212C19.4559 17.6591 18.6323 18.5165 18.186 19.5471C17.7397 20.5778 17.6982 21.718 18.0686 22.7735C18.4389 23.8291 19.1983 24.7345 20.2173 25.3357C21.2362 25.9369 22.4517 26.1965 23.6566 26.0704" stroke="white" stroke-width="2"/>
    <path d="M18.3314 39.397C18.3314 39.397 8.902 38.9877 8.05649 34.8147C7.21098 30.6418 16.1171 12.2727 17.3479 10.6303C18.5787 8.98785 19.8069 7.48389 24.233 7.48389C28.6591 7.48389 29.1509 9.28181 30.1345 11.0797C31.1181 12.8777 39.027 33.0058 39.027 33.0058C39.027 33.0058 42.1297 39.8926 37.254 40.2977C32.3784 40.7028 30.04 40.6877 28.0106 38.9877C25.9812 37.2876 24.6285 32.4964 24.6285 32.4964H19.9676" stroke="white" stroke-width="3"/>
</svg>
