<svg width="27" height="28" viewBox="0 0 27 28" fill="none" xmlns="http://www.w3.org/2000/svg">
    <path d="M26.6667 27.3334L21.3333 22H8C7.26667 22 6.63889 21.7389 6.11667 21.2167C5.59444 20.6945 5.33333 20.0667 5.33333 19.3334V18H20C20.7333 18 21.3611 17.7389 21.8833 17.2167C22.4056 16.6945 22.6667 16.0667 22.6667 15.3334V6.00002H24C24.7333 6.00002 25.3611 6.26113 25.8833 6.78335C26.4056 7.30558 26.6667 7.93335 26.6667 8.66669V27.3334ZM2.66667 14.2334L4.23333 12.6667H17.3333V3.33335H2.66667V14.2334ZM0 20.6667V3.33335C0 2.60002 0.261111 1.97224 0.783333 1.45002C1.30556 0.927798 1.93333 0.666687 2.66667 0.666687H17.3333C18.0667 0.666687 18.6944 0.927798 19.2167 1.45002C19.7389 1.97224 20 2.60002 20 3.33335V12.6667C20 13.4 19.7389 14.0278 19.2167 14.55C18.6944 15.0722 18.0667 15.3334 17.3333 15.3334H5.33333L0 20.6667Z" fill="#6C6C6C"/>
</svg>
