<svg width="32" height="32" viewBox="0 0 32 32" fill="none" xmlns="http://www.w3.org/2000/svg">
<g clip-path="url(#clip0_413_1967)">
<path d="M32 24V22.2333C32 21.3762 31.5389 20.6787 30.6167 20.1407C29.6944 19.6024 28.4847 19.3333 26.9873 19.3333C26.7171 19.3333 26.4572 19.3389 26.2077 19.35C25.9581 19.3611 25.7111 19.385 25.4667 19.4217C25.6444 19.8072 25.7778 20.198 25.8667 20.594C25.9556 20.9898 26 21.4029 26 21.8333V24H32ZM24 24V21.8333C24 21.1222 23.8056 20.4722 23.4167 19.8833C23.0278 19.2944 22.4778 18.7778 21.7667 18.3333C21.0556 17.8889 20.2056 17.5556 19.2167 17.3333C18.2278 17.1111 17.1556 17 16 17C14.8222 17 13.7389 17.1111 12.75 17.3333C11.7611 17.5556 10.9111 17.8889 10.2 18.3333C9.48889 18.7778 8.94444 19.2944 8.56667 19.8833C8.18889 20.4722 8 21.1222 8 21.8333V24H24ZM6 24V21.8333C6 21.392 6.03889 20.9761 6.11666 20.5857C6.19444 20.1952 6.32222 19.8081 6.5 19.4243C6.25555 19.3859 6.00922 19.3611 5.761 19.35C5.51278 19.3389 5.25911 19.3333 5 19.3333C3.5 19.3333 2.29167 19.5974 1.375 20.1257C0.458332 20.6539 0 21.3564 0 22.2333V24H6ZM22 22H10V21.8C10 20.9778 10.5611 20.3056 11.6833 19.7833C12.8056 19.2611 14.2444 19 16 19C17.7556 19 19.1944 19.2611 20.3167 19.7833C21.4389 20.3056 22 20.9889 22 21.8333V22ZM27.0143 18.3333C27.6492 18.3333 28.1944 18.1049 28.65 17.648C29.1056 17.1909 29.3333 16.6416 29.3333 16C29.3333 15.3556 29.1049 14.8056 28.648 14.35C28.1909 13.8944 27.6416 13.6667 27 13.6667C26.3556 13.6667 25.8056 13.8944 25.35 14.35C24.8944 14.8056 24.6667 15.3603 24.6667 16.0143C24.6667 16.6492 24.8944 17.1944 25.35 17.65C25.8056 18.1056 26.3603 18.3333 27.0143 18.3333ZM5.01433 18.3333C5.64922 18.3333 6.19444 18.1049 6.65 17.648C7.10555 17.1909 7.33333 16.6416 7.33333 16C7.33333 15.3556 7.10489 14.8056 6.648 14.35C6.19089 13.8944 5.64155 13.6667 5 13.6667C4.35555 13.6667 3.80555 13.8944 3.35 14.35C2.89444 14.8056 2.66667 15.3603 2.66667 16.0143C2.66667 16.6492 2.89444 17.1944 3.35 17.65C3.80555 18.1056 4.36033 18.3333 5.01433 18.3333ZM16 16C17.1111 16 18.0556 15.6111 18.8333 14.8333C19.6111 14.0556 20 13.1111 20 12C20 10.8667 19.6111 9.91667 18.8333 9.15C18.0556 8.38333 17.1111 8 16 8C14.8667 8 13.9167 8.38333 13.15 9.15C12.3833 9.91667 12 10.8667 12 12C12 13.1111 12.3833 14.0556 13.15 14.8333C13.9167 15.6111 14.8667 16 16 16ZM15.9883 14C15.4183 14 14.9444 13.8072 14.5667 13.4217C14.1889 13.0361 14 12.5583 14 11.9883C14 11.4183 14.1906 10.9444 14.5717 10.5667C14.9528 10.1889 15.425 10 15.9883 10C16.5517 10 17.0278 10.1906 17.4167 10.5717C17.8056 10.9528 18 11.425 18 11.9883C18 12.5517 17.8072 13.0278 17.4217 13.4167C17.0361 13.8056 16.5583 14 15.9883 14Z" fill="#686969"/>
</g>
<defs>
<clipPath id="clip0_413_1967">
<rect width="32" height="32" fill="white" transform="matrix(-1 0 0 1 32 0)"/>
</clipPath>
</defs>
</svg>
